<svg id="boneco_baixo_dir" xmlns="http://www.w3.org/2000/svg" width="47.993" height="53.128" viewBox="0 0 47.993 53.128">
  <ellipse id="Elipse_133" data-name="Elipse 133" cx="2.801" cy="8.923" rx="2.801" ry="8.923" transform="translate(0 4.692) rotate(-39.512)" fill="#2f2e41"/>
  <ellipse id="Elipse_134" data-name="Elipse 134" cx="17.845" cy="17.845" rx="17.845" ry="17.845" transform="translate(2.9 12.848) rotate(-9.217)" fill="#2f2e41"/>
  <rect id="Ret창ngulo_119" data-name="Ret창ngulo 119" width="5.421" height="9.713" transform="translate(26.084 41.609)" fill="#2f2e41"/>
  <rect id="Ret창ngulo_120" data-name="Ret창ngulo 120" width="5.421" height="9.713" transform="translate(15.241 41.609)" fill="#2f2e41"/>
  <ellipse id="Elipse_135" data-name="Elipse 135" cx="4.518" cy="1.694" rx="4.518" ry="1.694" transform="translate(22.47 49.74)" fill="#2f2e41"/>
  <ellipse id="Elipse_136" data-name="Elipse 136" cx="4.518" cy="1.694" rx="4.518" ry="1.694" transform="translate(11.628 49.514)" fill="#2f2e41"/>
  <path id="Caminho_290" data-name="Caminho 290" d="M814.109,568.262c-5.626-4.649-8.753-8.911-4.541-14.008s12.187-5.46,17.813-.812,6.772,12.549,2.561,17.646S819.735,572.911,814.109,568.262Z" transform="translate(-784.487 -550.18)" fill="#ffd400"/>
  <ellipse id="Elipse_137" data-name="Elipse 137" cx="6.099" cy="6.099" rx="6.099" ry="6.099" transform="matrix(1, -0.029, 0.029, 1, 10.927, 12.428)" fill="#fff"/>
  <ellipse id="Elipse_138" data-name="Elipse 138" cx="2.033" cy="2.033" rx="2.033" ry="2.033" transform="translate(13.028 14.801)" fill="#3f3d56"/>
  <path id="Caminho_291" data-name="Caminho 291" d="M769.16,606.032c-1.235,1.235-2.108,5.239-.371,6.976s6.843-.111,8.078-1.346-1.868-1.389-3.605-3.126S770.394,604.8,769.16,606.032Z" transform="translate(-761.175 -582.666)" fill="#fff"/>
  <ellipse id="Elipse_139" data-name="Elipse 139" cx="2.801" cy="8.923" rx="2.801" ry="8.923" transform="matrix(0.934, -0.357, 0.357, 0.934, 31.324, 35.797)" fill="#2f2e41"/>
</svg>
