<svg xmlns="http://www.w3.org/2000/svg" width="284.496" height="203.837" viewBox="0 0 284.496 203.837">
  <g id="undraw_different_love_a3rg_1_" data-name="undraw_different_love_a3rg (1)" transform="translate(0 -133.563)">
    <g id="ground" transform="translate(9.144 278.567)">
      <path id="Caminho_427" data-name="Caminho 427" d="M525.9,706.264c0,2.714-61.613,17.426-137.617,17.426s-137.617-14.711-137.617-17.426,61.613,1.787,137.617,1.787S525.9,703.55,525.9,706.264Z" transform="translate(-250.665 -701.349)" fill="#3f3d56"/>
      <path id="Caminho_428" data-name="Caminho 428" d="M525.9,706.264c0,2.714-61.613,17.426-137.617,17.426s-137.617-14.711-137.617-17.426,61.613,1.787,137.617,1.787S525.9,703.55,525.9,706.264Z" transform="translate(-250.665 -701.349)" opacity="0.1"/>
      <ellipse id="Elipse_158" data-name="Elipse 158" cx="137.617" cy="4.915" rx="137.617" ry="4.915" transform="translate(0)" fill="#3f3d56"/>
    </g>
    <line id="Linha_10" data-name="Linha 10" y1="44.234" transform="translate(278.241 237.907)" fill="#3f3d56" stroke="#3f3d56" stroke-miterlimit="10" stroke-width="2"/>
    <circle id="Elipse_159" data-name="Elipse 159" cx="6.255" cy="6.255" r="6.255" transform="translate(271.985 231.652)" fill="#3f3d56"/>
    <path id="Caminho_429" data-name="Caminho 429" d="M925.705,631.731s-.894-19.22-19.213-16.986" transform="translate(-647.465 -366.561)" fill="#3f3d56"/>
    <line id="Linha_11" data-name="Linha 11" y1="145.551" transform="translate(25.468 139.888)" fill="#3f3d56" stroke="#3f3d56" stroke-miterlimit="10" stroke-width="2"/>
    <circle id="Elipse_160" data-name="Elipse 160" cx="6.255" cy="6.255" r="6.255" transform="translate(19.213 133.563)" fill="#3f3d56"/>
    <circle id="Elipse_161" data-name="Elipse 161" cx="6.255" cy="6.255" r="6.255" transform="translate(0 240.312)" fill="#3f3d56"/>
    <path id="Caminho_430" data-name="Caminho 430" d="M262.3,386.6s-.894-19.22-19.213-16.986" transform="translate(-236.827 -214.83)" fill="#3f3d56"/>
    <path id="Caminho_431" data-name="Caminho 431" d="M262.3,529.6s-.894-19.22-19.213-16.986" transform="translate(-236.827 -303.344)" fill="#3f3d56"/>
    <path id="Caminho_432" data-name="Caminho 432" d="M262.3,647.946s4.021-35.366-19.213-37.153" transform="translate(-236.827 -364.226)" fill="none" stroke="#3f3d56" stroke-miterlimit="10" stroke-width="2"/>
    <circle id="Elipse_162" data-name="Elipse 162" cx="6.255" cy="6.255" r="6.255" transform="translate(38.428 240.312)" fill="#3f3d56"/>
    <path id="Caminho_433" data-name="Caminho 433" d="M293.082,647.946s-4.021-35.366,19.213-37.153" transform="translate(-267.611 -364.226)" fill="none" stroke="#3f3d56" stroke-miterlimit="10" stroke-width="2"/>
    <circle id="Elipse_163" data-name="Elipse 163" cx="6.255" cy="6.255" r="6.255" transform="translate(38.809 181.634)" fill="#3f3d56"/>
    <path id="Caminho_434" data-name="Caminho 434" d="M294.082,493.946s-4.021-35.366,19.213-37.153" transform="translate(-268.23 -268.904)" fill="none" stroke="#3f3d56" stroke-miterlimit="10" stroke-width="2"/>
    <line id="Linha_12" data-name="Linha 12" y1="88.468" transform="translate(230.128 192.78)" fill="#3f3d56" stroke="#3f3d56" stroke-miterlimit="10" stroke-width="2"/>
    <circle id="Elipse_164" data-name="Elipse 164" cx="6.255" cy="6.255" r="6.255" transform="translate(223.872 186.525)" fill="#3f3d56"/>
    <path id="Caminho_435" data-name="Caminho 435" d="M830.644,508.6s.894-19.22,19.213-16.986" transform="translate(-600.516 -290.345)" fill="#3f3d56"/>
    <path id="Caminho_436" data-name="Caminho 436" d="M830.212,636.946s-4.021-35.365,19.213-37.153" transform="translate(-600.084 -357.418)" fill="none" stroke="#3f3d56" stroke-miterlimit="10" stroke-width="2"/>
    <circle id="Elipse_165" data-name="Elipse 165" cx="6.255" cy="6.255" r="6.255" transform="translate(243.085 236.12)" fill="#3f3d56"/>
    <circle id="Elipse_167" data-name="Elipse 167" cx="30.101" cy="30.101" r="30.101" transform="translate(152.31 210.352)" fill="#2f2e41"/>
    <rect id="Ret창ngulo_162" data-name="Ret창ngulo 162" width="9.144" height="16.384" transform="translate(196.127 280.46) rotate(180)" fill="#2f2e41"/>
    <rect id="Ret창ngulo_163" data-name="Ret창ngulo 163" width="9.144" height="16.384" transform="translate(177.838 280.46) rotate(180)" fill="#2f2e41"/>
    <ellipse id="Elipse_168" data-name="Elipse 168" cx="7.62" cy="2.858" rx="7.62" ry="2.858" transform="translate(163.333 283.512) rotate(-30)" fill="#2f2e41"/>
    <ellipse id="Elipse_169" data-name="Elipse 169" cx="7.62" cy="2.858" rx="7.62" ry="2.858" transform="translate(181.241 283.512) rotate(-30)" fill="#2f2e41"/>
    <circle id="Elipse_170" data-name="Elipse 170" cx="10.288" cy="10.288" r="10.288" transform="translate(171.361 222.545)" fill="#fff"/>
    <circle id="Elipse_171" data-name="Elipse 171" cx="3.429" cy="3.429" r="3.429" transform="translate(174.715 225.022)" fill="#3f3d56"/>
    <path id="Caminho_437" data-name="Caminho 437" d="M710.65,480.406c2.431-10.885-5.339-21.883-17.353-24.566s-23.724,3.966-26.155,14.851,5.532,14.9,17.546,17.582S708.219,491.291,710.65,480.406Z" transform="translate(-499.041 -267.945)" fill="#ffd400"/>
    <ellipse id="Elipse_172" data-name="Elipse 172" cx="4.725" cy="15.05" rx="4.725" ry="15.05" transform="translate(140.342 228.529) rotate(-66.829)" fill="#2f2e41"/>
    <ellipse id="Elipse_173" data-name="Elipse 173" cx="4.725" cy="15.05" rx="4.725" ry="15.05" transform="translate(196.733 248.723) rotate(-66.829)" fill="#2f2e41"/>
    <path id="Caminho_438" data-name="Caminho 438" d="M698.929,621.82a6.858,6.858,0,1,1-13.717,0c0-3.788,3.07-4.572,6.858-4.572S698.929,618.033,698.929,621.82Z" transform="translate(-510.497 -368.222)" fill="#fff"/>
    <path id="Caminho_440" data-name="Caminho 440" d="M417.9,449.582l2.425,5.715h2.148l-3.048-14.479c0-9.293-4.486-17.146-13.779-17.146h0A11.749,11.749,0,0,0,393.9,435.422v14.2a5.676,5.676,0,0,0,5.675,5.676h16.662Z" transform="translate(-330.179 -248.403)" fill="#2f2e41"/>
    <path id="Caminho_441" data-name="Caminho 441" d="M433.388,640.807s31.625-3.81,35.435,3.048,1.143,12.574-3.81,16-32.387,19.051-32.387,19.051l-2.286,3.81-4.953-.762-4.953-4.572,2.286-4.191s19.051-11.431,19.432-14.479c0,0-17.527,8-19.432,6.477s-23.242-8.764-19.813-12.955S415.1,641.95,415.1,641.95Z" transform="translate(-335.525 -382.151)" fill="#2f2e41"/>
    <path id="Caminho_442" data-name="Caminho 442" d="M433.388,640.807s31.625-3.81,35.435,3.048,1.143,12.574-3.81,16-32.387,19.051-32.387,19.051l-2.286,3.81-4.953-.762-4.953-4.572,2.286-4.191s19.051-11.431,19.432-14.479c0,0-17.527,8-19.432,6.477s-23.242-8.764-19.813-12.955S415.1,641.95,415.1,641.95Z" transform="translate(-335.525 -382.151)" opacity="0.1"/>
    <path id="Caminho_443" data-name="Caminho 443" d="M442.76,730.5s5.715-1.143,4.572,2.667-1.905,11.431,0,13.336,8,10.288,1.905,11.05-12.574-6.858-12.574-6.858-4.191-12.193-7.239-13.336-6.1-5.715-4.572-6.858,10.669-8.383,11.431-8,.381,4.572.381,4.572S439.712,732.024,442.76,730.5Z" transform="translate(-349.088 -433.361)" fill="#2f2e41"/>
    <path id="Caminho_444" data-name="Caminho 444" d="M469.059,493.483l14.1,9.907s10.669-11.05,10.669-17.527,5.715-18.67,8.382-13.717-3.048,16.765-3.048,16.765l-10.669,25.147s-6.1,1.143-9.526-1.524-12.955-8-12.955-8Z" transform="translate(-374.816 -277.692)" fill="#ffb9b9"/>
    <circle id="Elipse_175" data-name="Elipse 175" cx="10.669" cy="10.669" r="10.669" transform="translate(69.668 177.88)" fill="#ffb9b9"/>
    <path id="Caminho_445" data-name="Caminho 445" d="M415.052,475.546s-3.81,9.906-2.286,12.193,3.429,2.286,4.953,3.048c.762.381,8.763,3.429,8.763,5.715a9.092,9.092,0,0,1-1.143,4.191l-1.143,6.477-9.525,6.1L402.1,511.743l-9.526-5.334s-1.524-14.1,2.667-16.384,9.144-7.62,8.763-9.526-.762-6.477-.762-6.477Z" transform="translate(-329.191 -279.568)" fill="#ffb9b9"/>
    <path id="Caminho_446" data-name="Caminho 446" d="M435.208,533.832s-5.715,5.715-5.715,6.477,3.81,4.191,1.143,8.763-2.667,16-2.667,16l-9.144,1.905-17.146-1.524-2.667-26.29s6.858,1.143,8.382,2.286,5.715-1.524,8.763-1.524,11.812-1.524,11.812-1.524l-.762-3.048,3.048-5.334Z" transform="translate(-333.344 -314.231)" fill="#1a9dd9"/>
    <path id="Caminho_447" data-name="Caminho 447" d="M497.511,646.522" transform="translate(-394.313 -386.342)" fill="none" stroke="#ffb9b9" stroke-miterlimit="10" stroke-width="1"/>
    <path id="Caminho_448" data-name="Caminho 448" d="M410.585,630.59s38.483-17.146,41.531-6.1,3.429,37.721,3.429,37.721,1.905,18.289,4.191,20.194,0,7.62,0,7.62l-5.715,1.905-5.334-2.286-2.286-6.1s-.762-13.717-3.81-20.575-3.048-22.861-2.667-23.623c0,0-14.86,18.289-29.339,17.146s-16.574-4.382-16.574-4.382S401.06,630.59,410.585,630.59Z" transform="translate(-330.249 -370.409)" fill="#2f2e41"/>
    <path id="Caminho_449" data-name="Caminho 449" d="M538.089,783.055s1.524-5.334,4.953-1.143,19.051,10.669,19.432,11.431,7.239,4.953-.762,10.669-18.67,0-18.67,0-9.145-3.048-11.431-2.667-6.858-1.905-7.239-3.81.519-18.653,2.546-16.947,4.313,6.278,4.313,6.278S538.851,788.771,538.089,783.055Z" transform="translate(-410.887 -469.151)" fill="#2f2e41"/>
    <path id="Caminho_450" data-name="Caminho 450" d="M415.917,612.846s2.1-.19,1.715,4.763c0,0-13.145,4-15.431,7.43s-12.193,13.717-13.717,20.956c0,0-11.05-2.667-4.953-21.718l7.168-15.54S394.961,617.418,415.917,612.846Z" transform="translate(-322.626 -362.953)" fill="#2f2e41"/>
    <path id="Caminho_451" data-name="Caminho 451" d="M415.544,564.718l-12.94-5.641s-6.1-12.574-6.1-18.67a93.948,93.948,0,0,0-.81-10.486,13.537,13.537,0,0,1,4.407-11.866,7,7,0,0,1,4.4-2.033s4.572,8.383,3.81,16,1.143,19.051,1.143,19.051l17.217,9.215" transform="translate(-331.221 -305.565)" fill="#ffb9b9"/>
    <path id="Caminho_452" data-name="Caminho 452" d="M417.047,591.56l-12.94-5.641s-6.1-12.574-6.1-18.67c0-3.175,13.336-12.574,12.574-4.953a74.694,74.694,0,0,0,.381,15.622l17.217,9.215" transform="translate(-332.725 -332.407)" opacity="0.1"/>
    <path id="Caminho_453" data-name="Caminho 453" d="M405.395,558.225l-1.215,5.144-6.787,3.239h-5.715l-2.667-12.193s4.709-1,7.117.264,8.063,1.562,8.063,1.562Z" transform="translate(-327.154 -329.098)" fill="#1a9dd9"/>
    <path id="Caminho_454" data-name="Caminho 454" d="M406.694,424.182a44.875,44.875,0,0,0-7.686-.51,13.157,13.157,0,0,0-13.157,13.157L380.9,455.3h9.641l1.789-6.858,2.54,6.858h4.854l.417-4.121,1.643,4.121h5.406c-4.049-9.161-6.2-17.512-.883-22.666,3.592.489,6.622-.473,7.115-2.42C413.989,427.967,410.978,425.268,406.694,424.182Z" transform="translate(-322.132 -248.403)" fill="#2f2e41"/>
  </g>
</svg>
