<svg xmlns="http://www.w3.org/2000/svg" width="412" height="238.287" viewBox="0 0 412 238.287">
  <g id="desenho" transform="translate(0 0)">
    <circle id="Elipse_49" data-name="Elipse 49" cx="3.322" cy="3.322" r="3.322" transform="translate(394.854 7.969)" fill="#f2f2f2"/>
    <circle id="Elipse_50" data-name="Elipse 50" cx="3.322" cy="3.322" r="3.322" transform="translate(381.614 7.969)" fill="#f2f2f2"/>
    <circle id="Elipse_51" data-name="Elipse 51" cx="3.322" cy="3.322" r="3.322" transform="translate(368.374 7.969)" fill="#f2f2f2"/>
    <circle id="Elipse_52" data-name="Elipse 52" cx="3.322" cy="3.322" r="3.322" transform="translate(355.134 7.969)" fill="#f2f2f2"/>
    <circle id="Elipse_53" data-name="Elipse 53" cx="3.322" cy="3.322" r="3.322" transform="translate(394.854 21.84)" fill="#f2f2f2"/>
    <circle id="Elipse_54" data-name="Elipse 54" cx="3.322" cy="3.322" r="3.322" transform="translate(381.614 21.84)" fill="#f2f2f2"/>
    <circle id="Elipse_55" data-name="Elipse 55" cx="3.322" cy="3.322" r="3.322" transform="translate(368.374 21.84)" fill="#f2f2f2"/>
    <circle id="Elipse_56" data-name="Elipse 56" cx="3.322" cy="3.322" r="3.322" transform="translate(355.134 21.84)" fill="#f2f2f2"/>
    <circle id="Elipse_57" data-name="Elipse 57" cx="3.322" cy="3.322" r="3.322" transform="translate(394.854 35.71)" fill="#f2f2f2"/>
    <circle id="Elipse_58" data-name="Elipse 58" cx="3.322" cy="3.322" r="3.322" transform="translate(381.614 35.71)" fill="#f2f2f2"/>
    <circle id="Elipse_59" data-name="Elipse 59" cx="3.322" cy="3.322" r="3.322" transform="translate(368.374 35.71)" fill="#f2f2f2"/>
    <circle id="Elipse_60" data-name="Elipse 60" cx="3.322" cy="3.322" r="3.322" transform="translate(355.134 35.71)" fill="#f2f2f2"/>
    <circle id="Elipse_61" data-name="Elipse 61" cx="3.322" cy="3.322" r="3.322" transform="translate(394.854 49.58)" fill="#f2f2f2"/>
    <circle id="Elipse_62" data-name="Elipse 62" cx="3.322" cy="3.322" r="3.322" transform="translate(381.614 49.58)" fill="#f2f2f2"/>
    <circle id="Elipse_63" data-name="Elipse 63" cx="3.322" cy="3.322" r="3.322" transform="translate(368.374 49.58)" fill="#f2f2f2"/>
    <circle id="Elipse_64" data-name="Elipse 64" cx="3.322" cy="3.322" r="3.322" transform="translate(355.134 49.58)" fill="#f2f2f2"/>
    <circle id="Elipse_65" data-name="Elipse 65" cx="3.322" cy="3.322" r="3.322" transform="translate(394.854 63.45)" fill="#f2f2f2"/>
    <circle id="Elipse_66" data-name="Elipse 66" cx="3.322" cy="3.322" r="3.322" transform="translate(381.614 63.45)" fill="#f2f2f2"/>
    <circle id="Elipse_67" data-name="Elipse 67" cx="3.322" cy="3.322" r="3.322" transform="translate(368.374 63.45)" fill="#f2f2f2"/>
    <circle id="Elipse_68" data-name="Elipse 68" cx="3.322" cy="3.322" r="3.322" transform="translate(355.134 63.45)" fill="#f2f2f2"/>
    <circle id="Elipse_69" data-name="Elipse 69" cx="3.322" cy="3.322" r="3.322" transform="translate(394.854 77.321)" fill="#f2f2f2"/>
    <circle id="Elipse_70" data-name="Elipse 70" cx="3.322" cy="3.322" r="3.322" transform="translate(381.614 77.321)" fill="#f2f2f2"/>
    <circle id="Elipse_71" data-name="Elipse 71" cx="3.322" cy="3.322" r="3.322" transform="translate(368.374 77.321)" fill="#f2f2f2"/>
    <circle id="Elipse_72" data-name="Elipse 72" cx="3.322" cy="3.322" r="3.322" transform="translate(355.134 77.321)" fill="#f2f2f2"/>
    <path id="Caminho_152" data-name="Caminho 152" d="M889.938,621.83c2.4-5.18,4.795-10.437,5.836-16.05s.6-11.7-2.377-16.572-8.85-8.169-14.452-7.069c-4.6.9-8.294,4.527-10.457,8.687s-3.031,8.851-3.872,13.464c-.272-5.24-.56-10.564-2.3-15.514s-5.168-9.563-10.053-11.478-11.24-.409-13.814,4.163c-3.627,6.441,1.182,15.476-2.989,21.579a11.45,11.45,0,1,0-22.585,3.654A15.43,15.43,0,0,0,819,615.547c2.929,2.207,6.336,4.764,9.707,6.211Z" transform="translate(-497.416 -392.733)" fill="#f2f2f2"/>
    <path id="Caminho_153" data-name="Caminho 153" d="M819.024,616.41c4.833,1.689,9.711,3.4,14.123,6.039a26.039,26.039,0,0,1,9.7,9.636,17.135,17.135,0,0,1,2.119,7.119c.032.523.85.526.818,0a20.1,20.1,0,0,0-5.7-12.283,36.024,36.024,0,0,0-12.515-8.173c-2.732-1.16-5.532-2.147-8.333-3.126-.5-.174-.712.616-.217.788Z" transform="translate(-500.372 -411.752)" fill="#fff"/>
    <path id="Caminho_154" data-name="Caminho 154" d="M873.51,579.076A73.657,73.657,0,0,1,880.6,594.8a74.544,74.544,0,0,1,3.268,16.936,73.622,73.622,0,0,1,.078,9.677c-.03.526.787.524.818,0a74.582,74.582,0,0,0-1.048-17.374,75.474,75.474,0,0,0-5.018-16.665,73.588,73.588,0,0,0-4.475-8.714.409.409,0,0,0-.706.413Z" transform="translate(-526.98 -393.699)" fill="#fff"/>
    <path id="Caminho_155" data-name="Caminho 155" d="M942.122,588.587a119.206,119.206,0,0,0-8.793,29.579q-.689,4.3-1.068,8.637c-.046.524.772.521.818,0a118.777,118.777,0,0,1,6.544-29.809q1.456-4.054,3.205-7.994C943.04,588.523,942.336,588.107,942.122,588.587Z" transform="translate(-555.573 -398.514)" fill="#fff"/>
    <path id="Caminho_156" data-name="Caminho 156" d="M610.486,663.513H199.514a.514.514,0,1,1,0-1.027H610.486a.514.514,0,1,1,0,1.027Z" transform="translate(-199 -434.554)" fill="#3f3d56"/>
    <path id="Caminho_157" data-name="Caminho 157" d="M542.144,316.677H470.876a3.868,3.868,0,0,1-3.864-3.864V222.656a3.868,3.868,0,0,1,3.864-3.864h71.267a3.868,3.868,0,0,1,3.864,3.864v90.157A3.868,3.868,0,0,1,542.144,316.677Zm-71.267-97.026a3.009,3.009,0,0,0-3.005,3.005v90.157a3.009,3.009,0,0,0,3.005,3.005h71.267a3.009,3.009,0,0,0,3.005-3.005V222.656a3.009,3.009,0,0,0-3.005-3.005Z" transform="translate(-329.33 -218.793)" fill="#3f3d56"/>
    <path id="Caminho_158" data-name="Caminho 158" d="M515.679,281.97H499.992a1.934,1.934,0,0,1-1.932-1.932V261.526a1.934,1.934,0,0,1,1.932-1.932h15.687a1.934,1.934,0,0,1,1.932,1.932v18.512A1.934,1.934,0,0,1,515.679,281.97Z" transform="translate(-344.428 -238.634)" fill="#1a9dd9"/>
    <path id="Caminho_159" data-name="Caminho 159" d="M575.016,298.684H559.328a1.934,1.934,0,0,1-1.932-1.932V278.24a1.934,1.934,0,0,1,1.932-1.932h15.687a1.934,1.934,0,0,1,1.932,1.932v18.512A1.934,1.934,0,0,1,575.016,298.684Z" transform="translate(-373.282 -246.762)" fill="#ccc"/>
    <path id="Caminho_160" data-name="Caminho 160" d="M527.38,349.663H511.692a1.934,1.934,0,0,1-1.932-1.932V329.218a1.934,1.934,0,0,1,1.932-1.932H527.38a1.934,1.934,0,0,1,1.932,1.932V347.73a1.934,1.934,0,0,1-1.932,1.932Z" transform="translate(-350.118 -271.552)" fill="#ffd400"/>
    <circle id="Elipse_73" data-name="Elipse 73" cx="3.322" cy="3.322" r="3.322" transform="translate(56.233 2.75)" fill="#f2f2f2"/>
    <circle id="Elipse_74" data-name="Elipse 74" cx="3.322" cy="3.322" r="3.322" transform="translate(56.233 15.99)" fill="#f2f2f2"/>
    <circle id="Elipse_75" data-name="Elipse 75" cx="3.322" cy="3.322" r="3.322" transform="translate(56.233 29.23)" fill="#f2f2f2"/>
    <circle id="Elipse_76" data-name="Elipse 76" cx="3.322" cy="3.322" r="3.322" transform="translate(56.233 42.47)" fill="#f2f2f2"/>
    <circle id="Elipse_77" data-name="Elipse 77" cx="3.322" cy="3.322" r="3.322" transform="translate(70.104 2.75)" fill="#f2f2f2"/>
    <circle id="Elipse_78" data-name="Elipse 78" cx="3.322" cy="3.322" r="3.322" transform="translate(70.104 15.99)" fill="#f2f2f2"/>
    <circle id="Elipse_79" data-name="Elipse 79" cx="3.322" cy="3.322" r="3.322" transform="translate(70.104 29.23)" fill="#f2f2f2"/>
    <circle id="Elipse_80" data-name="Elipse 80" cx="3.322" cy="3.322" r="3.322" transform="translate(70.104 42.47)" fill="#f2f2f2"/>
    <circle id="Elipse_81" data-name="Elipse 81" cx="3.322" cy="3.322" r="3.322" transform="translate(83.974 2.75)" fill="#f2f2f2"/>
    <circle id="Elipse_82" data-name="Elipse 82" cx="3.322" cy="3.322" r="3.322" transform="translate(83.974 15.99)" fill="#f2f2f2"/>
    <circle id="Elipse_83" data-name="Elipse 83" cx="3.322" cy="3.322" r="3.322" transform="translate(83.974 29.23)" fill="#f2f2f2"/>
    <circle id="Elipse_84" data-name="Elipse 84" cx="3.322" cy="3.322" r="3.322" transform="translate(83.974 42.47)" fill="#f2f2f2"/>
    <circle id="Elipse_85" data-name="Elipse 85" cx="3.322" cy="3.322" r="3.322" transform="translate(97.844 2.75)" fill="#f2f2f2"/>
    <circle id="Elipse_86" data-name="Elipse 86" cx="3.322" cy="3.322" r="3.322" transform="translate(97.844 15.99)" fill="#f2f2f2"/>
    <circle id="Elipse_87" data-name="Elipse 87" cx="3.322" cy="3.322" r="3.322" transform="translate(97.844 29.23)" fill="#f2f2f2"/>
    <circle id="Elipse_88" data-name="Elipse 88" cx="3.322" cy="3.322" r="3.322" transform="translate(97.844 42.47)" fill="#f2f2f2"/>
    <circle id="Elipse_89" data-name="Elipse 89" cx="3.322" cy="3.322" r="3.322" transform="translate(111.715 2.75)" fill="#f2f2f2"/>
    <circle id="Elipse_90" data-name="Elipse 90" cx="3.322" cy="3.322" r="3.322" transform="translate(111.715 15.99)" fill="#f2f2f2"/>
    <circle id="Elipse_91" data-name="Elipse 91" cx="3.322" cy="3.322" r="3.322" transform="translate(111.715 29.23)" fill="#f2f2f2"/>
    <circle id="Elipse_92" data-name="Elipse 92" cx="3.322" cy="3.322" r="3.322" transform="translate(111.715 42.47)" fill="#f2f2f2"/>
    <circle id="Elipse_93" data-name="Elipse 93" cx="3.322" cy="3.322" r="3.322" transform="translate(125.585 2.75)" fill="#f2f2f2"/>
    <circle id="Elipse_94" data-name="Elipse 94" cx="3.322" cy="3.322" r="3.322" transform="translate(125.585 15.99)" fill="#f2f2f2"/>
    <circle id="Elipse_95" data-name="Elipse 95" cx="3.322" cy="3.322" r="3.322" transform="translate(125.585 29.23)" fill="#f2f2f2"/>
    <circle id="Elipse_96" data-name="Elipse 96" cx="3.322" cy="3.322" r="3.322" transform="translate(125.585 42.47)" fill="#f2f2f2"/>
    <circle id="Elipse_97" data-name="Elipse 97" cx="21.582" cy="21.582" r="21.582" transform="translate(71.423 190.285)" fill="#2f2e41"/>
    <rect id="Retângulo_63" data-name="Retângulo 63" width="11.747" height="6.557" transform="translate(74.293 231.309) rotate(-26.601)" fill="#2f2e41"/>
    <ellipse id="Elipse_98" data-name="Elipse 98" cx="2.049" cy="5.464" rx="2.049" ry="5.464" transform="translate(68.364 232.269) rotate(-56.601)" fill="#2f2e41"/>
    <rect id="Retângulo_64" data-name="Retângulo 64" width="6.557" height="11.747" transform="translate(98.277 231.907) rotate(-63.399)" fill="#2f2e41"/>
    <ellipse id="Elipse_99" data-name="Elipse 99" cx="5.464" cy="2.049" rx="5.464" ry="2.049" transform="translate(106.267 234.865) rotate(-33.399)" fill="#2f2e41"/>
    <circle id="Elipse_100" data-name="Elipse 100" cx="7.376" cy="7.376" r="7.376" transform="translate(84.119 199.212)" fill="#fff"/>
    <path id="Caminho_161" data-name="Caminho 161" d="M368.073,620.661a2.549,2.549,0,0,1,3.6,3.6A2.549,2.549,0,0,1,368.073,620.661Z" transform="translate(-280.898 -413.895)" fill="#3f3d56"/>
    <path id="Caminho_162" data-name="Caminho 162" d="M382.943,571.186c.325-7.99-6.562-14.758-15.381-15.116s-16.232,5.829-16.556,13.819,5.806,9.806,14.625,10.164S382.619,579.176,382.943,571.186Z" transform="translate(-272.912 -382.798)" fill="#ccc"/>
    <ellipse id="Elipse_101" data-name="Elipse 101" cx="3.388" cy="10.791" rx="3.388" ry="10.791" transform="translate(105.843 209) rotate(-40.645)" fill="#2f2e41"/>
    <ellipse id="Elipse_102" data-name="Elipse 102" cx="10.791" cy="3.388" rx="10.791" ry="3.388" transform="translate(61.029 220.961) rotate(-49.355)" fill="#2f2e41"/>
    <path id="Caminho_163" data-name="Caminho 163" d="M382.355,645.343a4.917,4.917,0,1,1-9.676,1.761l0-.01c-.484-2.672,1.582-3.618,4.255-4.1S381.872,642.671,382.355,645.343Z" transform="translate(-283.422 -424.971)" fill="#fff"/>
    <path id="Caminho_164" data-name="Caminho 164" d="M766.672,546.116H737.9a1.285,1.285,0,0,1-1.284,1.284H708.371a6.6,6.6,0,0,0-1.084,1.028,6.375,6.375,0,0,0-1.49,4.11v1.028a6.424,6.424,0,0,0,6.421,6.421h54.454a6.427,6.427,0,0,0,6.421-6.421v-1.028A6.43,6.43,0,0,0,766.672,546.116Z" transform="translate(-445.447 -377.965)" fill="#3f3d56"/>
    <rect id="Retângulo_65" data-name="Retângulo 65" width="6.678" height="47.262" transform="translate(290.913 181.766)" fill="#3f3d56"/>
    <path id="Caminho_165" data-name="Caminho 165" d="M772.5,658.063c0,.722-10.12.279-22.6.279s-22.6.443-22.6-.279,10.12-6.444,22.6-6.444S772.5,657.342,772.5,658.063Z" transform="translate(-455.9 -429.27)" fill="#3f3d56"/>
    <path id="Caminho_166" data-name="Caminho 166" d="M759.125,539.673,758,532.666a3.377,3.377,0,0,0-3.863-2.8l-11.553,1.844L722.8,534.87l-6.437,1.027h13.963a1.285,1.285,0,0,1,1.284,1.284v1.012a1.285,1.285,0,0,1-1.284,1.284H694.792a3.252,3.252,0,0,0-1.248,1.027,3.333,3.333,0,0,0-.637,2.548l.318,1.993.385,2.42.416,2.6a3.37,3.37,0,0,0,3.853,2.795l9.18-1.464,26.477-4.228,22.788-3.637a3.384,3.384,0,0,0,2.8-3.858Z" transform="translate(-439.158 -370.042)" fill="#1a9dd9"/>
    <path id="Caminho_167" data-name="Caminho 167" d="M706.7,549.643a3.266,3.266,0,0,0-1.3-1.027h-9.822a3.246,3.246,0,0,0-1.3,1.027,3.321,3.321,0,0,0-.7,2.05v39.15a3.37,3.37,0,0,0,3.365,3.365h7.1a3.37,3.37,0,0,0,3.365-3.365v-39.15a3.331,3.331,0,0,0-.7-2.05Z" transform="translate(-439.5 -379.181)" fill="#1a9dd9"/>
    <path id="Caminho_168" data-name="Caminho 168" d="M714.842,414.413l-.067-.087-4.408-5.43a3.244,3.244,0,0,0-.837-.735,2.475,2.475,0,0,0-.545-.277,3.237,3.237,0,0,0-.878-.216,3.413,3.413,0,0,0-.606-.01.016.016,0,0,0-.01.005,3.332,3.332,0,0,0-1.86.74l-9.047,7.336-11.625,9.432-17.348,14.076-1.264,1.027H688.3l1.269-1.027,4.2-3.406.3-.236,20.271-16.444.016-.01a3.316,3.316,0,0,0,.961-1.259,3.39,3.39,0,0,0,.267-1.012A3.339,3.339,0,0,0,714.842,414.413Z" transform="translate(-426.263 -310.63)" fill="#1a9dd9"/>
    <path id="Caminho_169" data-name="Caminho 169" d="M732.122,414.286a8.374,8.374,0,0,0-1.829-3.75,8.279,8.279,0,0,0-3.416-2.414c-.206-.077-.406-.149-.611-.205a8.8,8.8,0,0,0-1.418-.3.016.016,0,0,0-.01.005,8.381,8.381,0,0,0-6.062,1.675l-15.648,11.959a3.321,3.321,0,0,0-1.1,2.348,3.412,3.412,0,0,0,.282,1.526c.052.108.108.216.17.318a2.956,2.956,0,0,0,.432.575l2.507,2.815,5.831,6.54.164.185.375.426a3.364,3.364,0,0,0,4.762.211l13.5-14.5a8.327,8.327,0,0,0,1.639-2.584A8.459,8.459,0,0,0,732.122,414.286Z" transform="translate(-443.611 -310.591)" fill="#2f2e41"/>
    <circle id="Elipse_103" data-name="Elipse 103" cx="25.749" cy="25.749" r="25.749" transform="translate(268.729 33.596)" fill="#1a9dd9"/>
    <path id="Caminho_170" data-name="Caminho 170" d="M728.34,532.773l-.7-4.418-.416-2.594a3.372,3.372,0,0,0-3.858-2.795l-18.714,2.985-5.075.812-1.027.164v5.615h16.829a1.285,1.285,0,0,1,1.284,1.284v1.012a1.285,1.285,0,0,1-1.284,1.284H662.117c0,.01.005.021.005.031l.318,1.993.8,5.014a3.37,3.37,0,0,0,3.853,2.795l9.18-1.464,2-.319.385-.062,13.449-2.147,9.149-1.464,14.517-2.317.216-.036,9.55-1.521A3.374,3.374,0,0,0,728.34,532.773Z" transform="translate(-424.206 -366.687)" fill="#1a9dd9"/>
    <path id="Caminho_171" data-name="Caminho 171" d="M780.906,451.577c0,20.99-2.132,33.546-35.01,29.95l-.133-.015a97.625,97.625,0,0,1-17.328-3.314,51.463,51.463,0,0,1-8.548-3.349c-.647-.329-1.269-.673-1.88-1.027h24.546a1.285,1.285,0,0,0,1.284-1.284v-1.012a1.285,1.285,0,0,0-1.284-1.284H725.723V437.794a3.771,3.771,0,0,0-3.766-3.766h.693c.118-.339.236-.683.365-1.027,1.248-3.468,1.126-6.2,2.9-9.591,2.435-4.685,2.45-9.4,5.651-13.357,2.384-2.944-4.917-6.155-2.235-8.363,5.153-4.254,10.762-6.884,16.454-6.884C766.774,394.806,780.906,430.586,780.906,451.577Z" transform="translate(-451.385 -304.385)" fill="#2f2e41"/>
    <path id="Caminho_172" data-name="Caminho 172" d="M767,337.385l.027-.962c-1.79-.05-3.368-.162-4.554-1.028a2.957,2.957,0,0,1-1.146-2.179,1.691,1.691,0,0,1,.555-1.393,2.914,2.914,0,0,1,2.977-.026l.8.365L764.126,321l-.953.131,1.3,9.491a3.4,3.4,0,0,0-3.213.462,2.632,2.632,0,0,0-.895,2.161,3.913,3.913,0,0,0,1.54,2.922C763.427,337.284,765.406,337.34,767,337.385Z" transform="translate(-471.979 -268.497)" fill="#2f2e41"/>
    <rect id="Retângulo_66" data-name="Retângulo 66" width="5.182" height="0.962" transform="translate(281.297 53.457)" fill="#2f2e41"/>
    <rect id="Retângulo_67" data-name="Retângulo 67" width="5.182" height="0.962" transform="translate(297.654 53.457)" fill="#2f2e41"/>
    <path id="Caminho_173" data-name="Caminho 173" d="M768.473,430.743l-2.04-1.418-3.8-2.635a3.372,3.372,0,0,0-4.685.848l-12.375,17.81L734.054,461.93l-1.027,1.48v22.043h.092a3.355,3.355,0,0,0,2.1-1.027,3,3,0,0,0,.324-.4l3.586-5.168,8.862-12.755,9.185-13.213.873-1.259,11.261-16.208a2.925,2.925,0,0,0,.17-.267,2.69,2.69,0,0,0,.138-.272A3.365,3.365,0,0,0,768.473,430.743Z" transform="translate(-458.689 -319.599)" fill="#1a9dd9"/>
    <path id="Caminho_174" data-name="Caminho 174" d="M779.755,420.109a8.264,8.264,0,0,0-1.141-.627,8.4,8.4,0,0,0-10.264,2.651l-11.692,15.853a3.352,3.352,0,0,0,1.12,4.644l10.644,6.678.133.082.534.334a3.377,3.377,0,0,0,4.629-1.13l8.255-16.388.139-.272.005-.005.508-1.022a8.406,8.406,0,0,0-2.872-10.8Z" transform="translate(-469.934 -316.013)" fill="#2f2e41"/>
    <path id="Caminho_175" data-name="Caminho 175" d="M662.747,548.616v38.678a3.37,3.37,0,0,0,3.365,3.365h7.1a3.37,3.37,0,0,0,3.365-3.365V548.616Z" transform="translate(-424.513 -379.181)" fill="#1a9dd9"/>
    <path id="Caminho_176" data-name="Caminho 176" d="M686.28,505.368h-15.8V473.949a4.8,4.8,0,0,0-4.793-4.793h-58.6a4.8,4.8,0,0,0-4.8,4.792V506.21a4.8,4.8,0,0,0,4.8,4.793H686.28c.082,0,.159-.005.236-.01s.144-.021.216-.031a2.32,2.32,0,0,0,1.86-2.271V507.68a2.312,2.312,0,0,0-2.312-2.312Zm0,4.608H607.085a3.772,3.772,0,0,1-3.771-3.766V473.949a3.772,3.772,0,0,1,3.771-3.766h58.6a3.771,3.771,0,0,1,3.766,3.766V506.4H686.28a1.285,1.285,0,0,1,1.284,1.284v1.012A1.285,1.285,0,0,1,686.28,509.976Z" transform="translate(-395.112 -340.54)" fill="#3f3d56"/>
    <circle id="Elipse_104" data-name="Elipse 104" cx="3.951" cy="3.951" r="3.951" transform="translate(237.32 145.589)" fill="#1a9dd9"/>
    <rect id="Retângulo_68" data-name="Retângulo 68" width="1.027" height="4.623" transform="translate(274.323 165.372)" fill="#3f3d56"/>
    <ellipse id="Elipse_105" data-name="Elipse 105" cx="11.062" cy="3.473" rx="11.062" ry="3.473" transform="matrix(0.357, -0.934, 0.934, 0.357, 105.946, 141.605)" fill="#2f2e41"/>
    <circle id="Elipse_106" data-name="Elipse 106" cx="22.124" cy="22.124" r="22.124" transform="translate(67.308 167.512) rotate(-80.783)" fill="#2f2e41"/>
    <rect id="Retângulo_69" data-name="Retângulo 69" width="6.721" height="12.042" transform="translate(82.609 166.582)" fill="#2f2e41"/>
    <rect id="Retângulo_70" data-name="Retângulo 70" width="6.721" height="12.042" transform="translate(96.051 166.582)" fill="#2f2e41"/>
    <ellipse id="Elipse_107" data-name="Elipse 107" cx="5.601" cy="2.1" rx="5.601" ry="2.1" transform="translate(82.609 176.664)" fill="#2f2e41"/>
    <ellipse id="Elipse_108" data-name="Elipse 108" cx="5.601" cy="2.1" rx="5.601" ry="2.1" transform="translate(96.051 176.384)" fill="#2f2e41"/>
    <circle id="Elipse_109" data-name="Elipse 109" cx="7.561" cy="7.561" r="7.561" transform="matrix(1, -0.029, 0.029, 1, 85.47, 136.282)" fill="#fff"/>
    <circle id="Elipse_110" data-name="Elipse 110" cx="2.521" cy="2.521" r="2.521" transform="translate(90.73 141.097)" fill="#3f3d56"/>
    <path id="Caminho_177" data-name="Caminho 177" d="M337.345,451.7c-1.786-8,3.924-16.085,12.755-18.056s17.438,2.915,19.224,10.916-4.066,10.951-12.9,12.923S339.132,459.7,337.345,451.7Z" transform="translate(-266.116 -323.061)" fill="#1a9dd9"/>
    <ellipse id="Elipse_111" data-name="Elipse 111" cx="3.473" cy="11.062" rx="3.473" ry="11.062" transform="translate(56.289 137.349) rotate(-64.626)" fill="#2f2e41"/>
    <path id="Caminho_178" data-name="Caminho 178" d="M358.277,522.257c0,2.165,5.575,6.441,11.762,6.441s11.988-6.1,11.988-8.262-5.8.42-11.988.42S358.277,520.091,358.277,522.257Z" transform="translate(-276.454 -365.057)" fill="#fff"/>
    <path id="Caminho_179" data-name="Caminho 179" d="M441.372,477.5l-16.285,3.179a1.767,1.767,0,0,1-1.5-.4,1.8,1.8,0,0,1-.625-1.449,42.584,42.584,0,0,0-3.789-19.411,1.8,1.8,0,0,1,.034-1.577,1.767,1.767,0,0,1,1.241-.932l16.286-3.179a1.79,1.79,0,0,1,2.018,1.135,69.7,69.7,0,0,1,4.064,20.82A1.791,1.791,0,0,1,441.372,477.5Z" transform="translate(-305.986 -333.026)" fill="#ffd400"/>
    <path id="Caminho_180" data-name="Caminho 180" d="M302.372,506.5l-16.286,3.179a1.767,1.767,0,0,1-1.5-.4,1.8,1.8,0,0,1-.625-1.449,42.584,42.584,0,0,0-3.789-19.411,1.8,1.8,0,0,1,.034-1.577,1.767,1.767,0,0,1,1.241-.932l16.286-3.179a1.791,1.791,0,0,1,2.018,1.135,69.709,69.709,0,0,1,4.064,20.82A1.791,1.791,0,0,1,302.372,506.5Z" transform="translate(-238.392 -347.129)" fill="#ccc"/>
    <path id="Caminho_181" data-name="Caminho 181" d="M759.627,277.647a19.529,19.529,0,0,1-14.664.51,19.261,19.261,0,0,1-12.345-17.092l-1.16.665,4.888,3.44a.775.775,0,0,0,1.132-.461,10.314,10.314,0,0,1,5.024-6.532,13.46,13.46,0,0,1,8.953-1.489c6.352,1.03,12.07,5.265,15.79,10.4a28.409,28.409,0,0,1,4.44,9.267.771.771,0,0,0,1.486-.41,30.028,30.028,0,0,0-11.059-16.183c-5.52-4.1-13.248-6.576-19.741-3.267a11.978,11.978,0,0,0-6.379,7.806l1.132-.461-4.889-3.44a.775.775,0,0,0-1.159.665,21.1,21.1,0,0,0,6.036,13.815,20.51,20.51,0,0,0,14.35,6,20.87,20.87,0,0,0,8.942-1.9c.9-.413.118-1.741-.778-1.331Z" transform="translate(-457.74 -236.379)" fill="#2f2e41"/>
    <path id="Caminho_182" data-name="Caminho 182" d="M344.5,652.426l-16.286,3.179a1.768,1.768,0,0,1-1.5-.4,1.8,1.8,0,0,1-.625-1.449,42.584,42.584,0,0,0-3.789-19.411,1.8,1.8,0,0,1,.034-1.577,1.767,1.767,0,0,1,1.241-.932l16.286-3.179a1.79,1.79,0,0,1,2.018,1.135,69.708,69.708,0,0,1,4.064,20.82A1.79,1.79,0,0,1,344.5,652.426Z" transform="translate(-258.88 -418.089)" fill="#1a9dd9"/>
  </g>
</svg>
