<svg id="Camada_1" data-name="Camada 1" xmlns="http://www.w3.org/2000/svg" viewBox="0 0 12.6 20"><path id="Caminho_36" data-name="Caminho 36" d="M8.82,15.82,12,22l6.3-12.3Z" transform="translate(-5.72 -2.02)" fill="#149bd7"/><path id="Caminho_37" data-name="Caminho 37" d="M12,13.82l-3.1,2-3.1-6.1Z" transform="translate(-5.72 -2.02)" fill="#009640"/><path id="Caminho_38" data-name="Caminho 38" d="M8.61,15.42l.91,1.7,8.8-7.4Z" transform="translate(-5.72 -2.02)" fill="#ffd400"/><path id="Caminho_39" data-name="Caminho 39" d="M12,2a6.27,6.27,0,0,0-6.3,6.3h0l6.3,3.8,6.3-3.8A6.4,6.4,0,0,0,12,2Zm0,8.2a1.8,1.8,0,1,1,1.8-1.8h0A1.86,1.86,0,0,1,12,10.22Z" transform="translate(-5.72 -2.02)" fill="#ffd400"/></svg>