<svg id="Camada_1" data-name="Camada 1" xmlns="http://www.w3.org/2000/svg" viewBox="0 0 35.39 56.31"><polygon points="8.85 39 17.72 56.31 35.36 21.79 8.85 39" fill="#179cd8"/><polygon points="17.68 33.3 8.9 39.01 0.09 21.82 17.68 33.3" fill="#009740"/><polygon points="8.22 37.72 10.71 42.59 35.39 21.81 8.22 37.72" fill="#ffd402"/><path d="M30,1.84A17.64,17.64,0,0,0,12.31,19.48L30,30.24,47.59,19.48A17.64,17.64,0,0,0,30,1.84ZM30,24.9a5.14,5.14,0,1,1,5.14-5.14A5.14,5.14,0,0,1,30,24.9Z" transform="translate(-12.31 -1.84)" fill="#ffd402"/></svg>