<svg id="Camada_1" data-name="Camada 1" xmlns="http://www.w3.org/2000/svg" viewBox="0 0 12.57 20"><defs><style>.cls-1{fill:#149bd7;}.cls-2{fill:#009640;}.cls-3{fill:#ffd400;}</style></defs><g id="Grupo_10" data-name="Grupo 10"><g id="Grupo_130" data-name="Grupo 130"><path id="Caminho_36" data-name="Caminho 36" class="cls-1" d="M8.86,15.85,12,22,18.28,9.74Z" transform="translate(-5.72 -2)"/><path id="Caminho_37" data-name="Caminho 37" class="cls-2" d="M12,13.83l-3.11,2L5.75,9.75Z" transform="translate(-5.72 -2)"/><path id="Caminho_38" data-name="Caminho 38" class="cls-3" d="M8.64,15.4l.88,1.73,8.76-7.38Z" transform="translate(-5.72 -2)"/><path id="Caminho_39" data-name="Caminho 39" class="cls-3" d="M12,2A6.27,6.27,0,0,0,5.72,8.27h0L12,12.08l6.27-3.81A6.27,6.27,0,0,0,12,2Zm0,8.19a1.83,1.83,0,1,1,1.83-1.83h0A1.83,1.83,0,0,1,12,10.19Z" transform="translate(-5.72 -2)"/></g></g></svg>