<svg id="Layer_1" data-name="Layer 1" xmlns="http://www.w3.org/2000/svg" viewBox="0 0 240.38 122"><defs><style>.cls-1{fill:#1a9dd9;}.cls-2{fill:#009640;}.cls-3{fill:#ffd400;}</style></defs><path class="cls-1" d="M89.24,60.75c10.69,0,17.29,5.65,17.29,16.86v26.07a1.12,1.12,0,0,1-.78,1.13A51.69,51.69,0,0,1,89,107.59c-9.73,0-18.68-3.91-18.68-14.25,0-9.21,7.56-13.82,18.68-13.82a63.44,63.44,0,0,1,10.43,1V77.79c0-7-2.87-10.6-10.43-10.6A24.66,24.66,0,0,0,76.64,70.4a.83.83,0,0,1-1.3-.26l-2.52-3.65c-.27-.52-.35-.87,0-1.22C76.9,62.49,82.55,60.75,89.24,60.75ZM89,101.25a38.39,38.39,0,0,0,10.43-1.56v-13a61.51,61.51,0,0,0-10.43-1c-7.91,0-11.56,3-11.56,7.73C77.42,98.56,82.29,101.25,89,101.25Z" transform="translate(-3.97 -2.02)"/><path class="cls-1" d="M134.86,124a24.89,24.89,0,0,1-16.77-6c-.44-.35-.44-.78-.09-1.39l2.52-3.74a.86.86,0,0,1,1.39-.17,20.15,20.15,0,0,0,13,4.87c7.82,0,11.47-3.91,11.21-12.78v-2.08A27.07,27.07,0,0,1,135,105.25c-10.43,0-18.69-5.65-18.69-17.73V78.83c0-13.12,8.61-18.08,19.47-18.08a42.81,42.81,0,0,1,16.68,3.39,1.06,1.06,0,0,1,.79,1.13v40.15C153.2,116.8,147.81,124,134.86,124Zm.61-25.2c3.91,0,8.17-1,10.6-2.61V68.66a37.38,37.38,0,0,0-10.25-1.47c-7.48,0-12.34,3-12.34,11.64v8.69C123.48,95.86,128.6,98.82,135.47,98.82Z" transform="translate(-3.97 -2.02)"/><path class="cls-1" d="M182.57,107.59c-11.73,0-19.12-6.86-19.12-17V78.05c0-10.17,7.39-17.3,19.12-17.3s19.12,7.13,19.12,17.3V90.56C201.69,100.73,194.39,107.59,182.57,107.59Zm0-6.34c7.82,0,12-4.17,12-10.69V78.05c0-6.61-4.17-10.86-12-10.86s-11.91,4.25-11.91,10.86V90.56C170.66,97.08,174.84,101.25,182.57,101.25Z" transform="translate(-3.97 -2.02)"/><path class="cls-1" d="M226.71,107.59a28.76,28.76,0,0,1-17.2-5.56,1,1,0,0,1-.26-1.39l2.34-4c.35-.6.79-.69,1.39-.26a23.16,23.16,0,0,0,13.91,4.87c5.82,0,10.25-2.43,10.25-7,0-4.87-5.39-6-10.25-7-6.26-1.31-16.95-3.74-16.95-13.82,0-8.87,8.43-12.78,17.12-12.78a29.84,29.84,0,0,1,15.12,4.09.79.79,0,0,1,.35,1.3l-2.35,3.91a.84.84,0,0,1-1.3.35,26.16,26.16,0,0,0-12.17-3.21c-6.08,0-9.73,2.43-9.73,6.34,0,4.78,5.13,6.08,11.3,7.3,6.95,1.39,16.07,3.39,16.07,13.12C244.35,102.81,236.88,107.59,226.71,107.59Z" transform="translate(-3.97 -2.02)"/><polygon class="cls-1" points="16.42 72.36 32.89 104.49 65.62 40.43 16.42 72.36"/><polygon class="cls-2" points="32.8 61.79 16.52 72.38 0.16 40.5 32.8 61.79"/><polygon class="cls-3" points="15.26 69.98 19.88 79.02 65.67 40.46 15.26 69.98"/><path class="cls-3" d="M36.71,2A32.73,32.73,0,0,0,4,34.75l32.74,20,32.73-20A32.73,32.73,0,0,0,36.71,2Zm.16,42.77a9.54,9.54,0,1,1,9.54-9.54A9.54,9.54,0,0,1,36.87,44.79Z" transform="translate(-3.97 -2.02)"/></svg>